# xmcd CD database file generated by Grip 3.3.1
# 
# Track frame offsets:
#       150
#       15673
#       27378
#       39436
#       53950
#       69010
#       91565
#       104020
#       114731
#       126722
#       137590
#       148757
#       158739
#       168996
#       179127
#       189161
#       199393
#       211799
#       236205
#       249330
#       270050
#       282886
#       298679
#       314260
#       342185
# 
# Disc length: 4767 seconds
# 
# Revision: 3
# Processed by: cddbd v1.5.2PL0 Copyright (c) Steve Scherf et al.
# Submitted via: Grip 3.3.1
# 
DISCID=6f129d19
DTITLE=The Shadows - The Final Collection CD 2
DYEAR=2005
DGENRE=Instrumental
TTITLE0=Theme From The Deerhunter (Catavina)
TTITLE1=Midnight Cowboy
TTITLE2=Mustang
TTITLE3=Cosy
TTITLE4=Nivram
TTITLE5=Little B
TTITLE6=The Rise and Fall of Flingel Blunt
TTITLE7=Rhythm and Greens
TTITLE8=Genie with The Light Brown Lamp
TTITLE9=Mary-Anne
TTITLE10=Stingray
TTITLE11=Don't Make My Baby Blue
TTITLE12=The War Lord
TTITLE13=I Met a Girl
TTITLE14=A Place In The Sun
TTITLE15=The Dreams I Dream
TTITLE16=Maroc 7
TTITLE17=Slaughter On Tenth Avenue
TTITLE18=Turn Around And Touch Me
TTITLE19=Jungle Jam
TTITLE20=Let Me Be The One
TTITLE21=Don't Cry For Me Argentina
TTITLE22=Rodrigo's Guitar Concerto De Aranjuez
TTITLE23=Riders In The Sky
TTITLE24=Data Track
EXTD=
EXTT0=
EXTT1=
EXTT2=
EXTT3=
EXTT4=
EXTT5=
EXTT6=
EXTT7=
EXTT8=
EXTT9=
EXTT10=
EXTT11=
EXTT12=
EXTT13=
EXTT14=
EXTT15=
EXTT16=
EXTT17=
EXTT18=
EXTT19=
EXTT20=
EXTT21=
EXTT22=
EXTT23=
EXTT24=
PLAYORDER=
